<mxfile host="app.diagrams.net" modified="2023-08-03T00:22:44.102Z" agent="Mozilla/5.0 (Windows NT 10.0; Win64; x64) AppleWebKit/537.36 (KHTML, like Gecko) Chrome/114.0.0.0 Safari/537.36" etag="6b-WHCHUGXOiOrglN1W_" version="21.6.6" type="google">
  <diagram name="Página-1" id="w1pQxIF8wBYMUobOsNDO">
    <mxGraphModel grid="1" page="1" gridSize="10" guides="1" tooltips="1" connect="1" arrows="1" fold="1" pageScale="1" pageWidth="827" pageHeight="1169" math="0" shadow="0">
      <root>
        <mxCell id="0" />
        <mxCell id="1" parent="0" />
        <mxCell id="dvqhOSXXSm0Y7ai2Eb6L-2" value="Tarea" style="swimlane;fontStyle=0;childLayout=stackLayout;horizontal=1;startSize=30;horizontalStack=0;resizeParent=1;resizeParentMax=0;resizeLast=0;collapsible=1;marginBottom=0;whiteSpace=wrap;html=1;" vertex="1" parent="1">
          <mxGeometry x="40" y="60" width="100" height="260" as="geometry" />
        </mxCell>
        <mxCell id="dvqhOSXXSm0Y7ai2Eb6L-3" value="Definición de requisitos" style="text;strokeColor=none;fillColor=none;align=left;verticalAlign=middle;spacingLeft=4;spacingRight=4;overflow=hidden;points=[[0,0.5],[1,0.5]];portConstraint=eastwest;rotatable=0;whiteSpace=wrap;html=1;" vertex="1" parent="dvqhOSXXSm0Y7ai2Eb6L-2">
          <mxGeometry y="30" width="100" height="30" as="geometry" />
        </mxCell>
        <mxCell id="dvqhOSXXSm0Y7ai2Eb6L-4" value="Diseño de UI" style="text;strokeColor=none;fillColor=none;align=left;verticalAlign=middle;spacingLeft=4;spacingRight=4;overflow=hidden;points=[[0,0.5],[1,0.5]];portConstraint=eastwest;rotatable=0;whiteSpace=wrap;html=1;" vertex="1" parent="dvqhOSXXSm0Y7ai2Eb6L-2">
          <mxGeometry y="60" width="100" height="30" as="geometry" />
        </mxCell>
        <mxCell id="dvqhOSXXSm0Y7ai2Eb6L-5" value="Desarrollo del backend" style="text;strokeColor=none;fillColor=none;align=left;verticalAlign=middle;spacingLeft=4;spacingRight=4;overflow=hidden;points=[[0,0.5],[1,0.5]];portConstraint=eastwest;rotatable=0;whiteSpace=wrap;html=1;" vertex="1" parent="dvqhOSXXSm0Y7ai2Eb6L-2">
          <mxGeometry y="90" width="100" height="30" as="geometry" />
        </mxCell>
        <mxCell id="dvqhOSXXSm0Y7ai2Eb6L-15" value="Desarrollo de funcionalidades de la aplicación" style="text;strokeColor=none;fillColor=none;align=left;verticalAlign=middle;spacingLeft=4;spacingRight=4;overflow=hidden;points=[[0,0.5],[1,0.5]];portConstraint=eastwest;rotatable=0;whiteSpace=wrap;html=1;" vertex="1" parent="dvqhOSXXSm0Y7ai2Eb6L-2">
          <mxGeometry y="120" width="100" height="50" as="geometry" />
        </mxCell>
        <mxCell id="dvqhOSXXSm0Y7ai2Eb6L-18" value="Pruebas unitarias" style="text;strokeColor=none;fillColor=none;align=left;verticalAlign=middle;spacingLeft=4;spacingRight=4;overflow=hidden;points=[[0,0.5],[1,0.5]];portConstraint=eastwest;rotatable=0;whiteSpace=wrap;html=1;" vertex="1" parent="dvqhOSXXSm0Y7ai2Eb6L-2">
          <mxGeometry y="170" width="100" height="30" as="geometry" />
        </mxCell>
        <mxCell id="dvqhOSXXSm0Y7ai2Eb6L-21" value="Integración y pruebas finales" style="text;strokeColor=none;fillColor=none;align=left;verticalAlign=middle;spacingLeft=4;spacingRight=4;overflow=hidden;points=[[0,0.5],[1,0.5]];portConstraint=eastwest;rotatable=0;whiteSpace=wrap;html=1;" vertex="1" parent="dvqhOSXXSm0Y7ai2Eb6L-2">
          <mxGeometry y="200" width="100" height="30" as="geometry" />
        </mxCell>
        <mxCell id="dvqhOSXXSm0Y7ai2Eb6L-24" value="Aprobación del cliente" style="text;strokeColor=none;fillColor=none;align=left;verticalAlign=middle;spacingLeft=4;spacingRight=4;overflow=hidden;points=[[0,0.5],[1,0.5]];portConstraint=eastwest;rotatable=0;whiteSpace=wrap;html=1;" vertex="1" parent="dvqhOSXXSm0Y7ai2Eb6L-2">
          <mxGeometry y="230" width="100" height="30" as="geometry" />
        </mxCell>
        <mxCell id="dvqhOSXXSm0Y7ai2Eb6L-6" value="Duración" style="swimlane;fontStyle=0;childLayout=stackLayout;horizontal=1;startSize=30;horizontalStack=0;resizeParent=1;resizeParentMax=0;resizeLast=0;collapsible=1;marginBottom=0;whiteSpace=wrap;html=1;" vertex="1" parent="1">
          <mxGeometry x="140" y="60" width="100" height="260" as="geometry" />
        </mxCell>
        <mxCell id="dvqhOSXXSm0Y7ai2Eb6L-7" value="3 d" style="text;strokeColor=none;fillColor=none;align=left;verticalAlign=middle;spacingLeft=4;spacingRight=4;overflow=hidden;points=[[0,0.5],[1,0.5]];portConstraint=eastwest;rotatable=0;whiteSpace=wrap;html=1;" vertex="1" parent="dvqhOSXXSm0Y7ai2Eb6L-6">
          <mxGeometry y="30" width="100" height="30" as="geometry" />
        </mxCell>
        <mxCell id="dvqhOSXXSm0Y7ai2Eb6L-8" value="5 d" style="text;strokeColor=none;fillColor=none;align=left;verticalAlign=middle;spacingLeft=4;spacingRight=4;overflow=hidden;points=[[0,0.5],[1,0.5]];portConstraint=eastwest;rotatable=0;whiteSpace=wrap;html=1;" vertex="1" parent="dvqhOSXXSm0Y7ai2Eb6L-6">
          <mxGeometry y="60" width="100" height="30" as="geometry" />
        </mxCell>
        <mxCell id="dvqhOSXXSm0Y7ai2Eb6L-9" value="7 d" style="text;strokeColor=none;fillColor=none;align=left;verticalAlign=middle;spacingLeft=4;spacingRight=4;overflow=hidden;points=[[0,0.5],[1,0.5]];portConstraint=eastwest;rotatable=0;whiteSpace=wrap;html=1;" vertex="1" parent="dvqhOSXXSm0Y7ai2Eb6L-6">
          <mxGeometry y="90" width="100" height="30" as="geometry" />
        </mxCell>
        <mxCell id="dvqhOSXXSm0Y7ai2Eb6L-16" value="10 d" style="text;strokeColor=none;fillColor=none;align=left;verticalAlign=middle;spacingLeft=4;spacingRight=4;overflow=hidden;points=[[0,0.5],[1,0.5]];portConstraint=eastwest;rotatable=0;whiteSpace=wrap;html=1;" vertex="1" parent="dvqhOSXXSm0Y7ai2Eb6L-6">
          <mxGeometry y="120" width="100" height="50" as="geometry" />
        </mxCell>
        <mxCell id="dvqhOSXXSm0Y7ai2Eb6L-19" value="4 d" style="text;strokeColor=none;fillColor=none;align=left;verticalAlign=middle;spacingLeft=4;spacingRight=4;overflow=hidden;points=[[0,0.5],[1,0.5]];portConstraint=eastwest;rotatable=0;whiteSpace=wrap;html=1;" vertex="1" parent="dvqhOSXXSm0Y7ai2Eb6L-6">
          <mxGeometry y="170" width="100" height="30" as="geometry" />
        </mxCell>
        <mxCell id="dvqhOSXXSm0Y7ai2Eb6L-22" value="6 d" style="text;strokeColor=none;fillColor=none;align=left;verticalAlign=middle;spacingLeft=4;spacingRight=4;overflow=hidden;points=[[0,0.5],[1,0.5]];portConstraint=eastwest;rotatable=0;whiteSpace=wrap;html=1;" vertex="1" parent="dvqhOSXXSm0Y7ai2Eb6L-6">
          <mxGeometry y="200" width="100" height="30" as="geometry" />
        </mxCell>
        <mxCell id="dvqhOSXXSm0Y7ai2Eb6L-25" value="2 d" style="text;strokeColor=none;fillColor=none;align=left;verticalAlign=middle;spacingLeft=4;spacingRight=4;overflow=hidden;points=[[0,0.5],[1,0.5]];portConstraint=eastwest;rotatable=0;whiteSpace=wrap;html=1;" vertex="1" parent="dvqhOSXXSm0Y7ai2Eb6L-6">
          <mxGeometry y="230" width="100" height="30" as="geometry" />
        </mxCell>
        <mxCell id="dvqhOSXXSm0Y7ai2Eb6L-10" value="Previa" style="swimlane;fontStyle=0;childLayout=stackLayout;horizontal=1;startSize=30;horizontalStack=0;resizeParent=1;resizeParentMax=0;resizeLast=0;collapsible=1;marginBottom=0;whiteSpace=wrap;html=1;" vertex="1" parent="1">
          <mxGeometry x="240" y="60" width="100" height="260" as="geometry" />
        </mxCell>
        <mxCell id="dvqhOSXXSm0Y7ai2Eb6L-14" value="." style="text;strokeColor=none;fillColor=none;align=left;verticalAlign=middle;spacingLeft=4;spacingRight=4;overflow=hidden;points=[[0,0.5],[1,0.5]];portConstraint=eastwest;rotatable=0;whiteSpace=wrap;html=1;" vertex="1" parent="dvqhOSXXSm0Y7ai2Eb6L-10">
          <mxGeometry y="30" width="100" height="30" as="geometry" />
        </mxCell>
        <mxCell id="dvqhOSXXSm0Y7ai2Eb6L-12" value="Definición de requisitos" style="text;strokeColor=none;fillColor=none;align=left;verticalAlign=middle;spacingLeft=4;spacingRight=4;overflow=hidden;points=[[0,0.5],[1,0.5]];portConstraint=eastwest;rotatable=0;whiteSpace=wrap;html=1;" vertex="1" parent="dvqhOSXXSm0Y7ai2Eb6L-10">
          <mxGeometry y="60" width="100" height="30" as="geometry" />
        </mxCell>
        <mxCell id="dvqhOSXXSm0Y7ai2Eb6L-13" value="Diseño de UI" style="text;strokeColor=none;fillColor=none;align=left;verticalAlign=middle;spacingLeft=4;spacingRight=4;overflow=hidden;points=[[0,0.5],[1,0.5]];portConstraint=eastwest;rotatable=0;whiteSpace=wrap;html=1;" vertex="1" parent="dvqhOSXXSm0Y7ai2Eb6L-10">
          <mxGeometry y="90" width="100" height="30" as="geometry" />
        </mxCell>
        <mxCell id="dvqhOSXXSm0Y7ai2Eb6L-17" value="Diseño de UI, Desarrollo del backend" style="text;strokeColor=none;fillColor=none;align=left;verticalAlign=middle;spacingLeft=4;spacingRight=4;overflow=hidden;points=[[0,0.5],[1,0.5]];portConstraint=eastwest;rotatable=0;whiteSpace=wrap;html=1;" vertex="1" parent="dvqhOSXXSm0Y7ai2Eb6L-10">
          <mxGeometry y="120" width="100" height="50" as="geometry" />
        </mxCell>
        <mxCell id="dvqhOSXXSm0Y7ai2Eb6L-20" value="&lt;font style=&quot;font-size: 6px;&quot;&gt;Desarrollo de funcionalidades de la aplicación&lt;/font&gt;" style="text;strokeColor=none;fillColor=none;align=left;verticalAlign=middle;spacingLeft=4;spacingRight=4;overflow=hidden;points=[[0,0.5],[1,0.5]];portConstraint=eastwest;rotatable=0;whiteSpace=wrap;html=1;" vertex="1" parent="dvqhOSXXSm0Y7ai2Eb6L-10">
          <mxGeometry y="170" width="100" height="30" as="geometry" />
        </mxCell>
        <mxCell id="dvqhOSXXSm0Y7ai2Eb6L-23" value="Pruebas unitarias" style="text;strokeColor=none;fillColor=none;align=left;verticalAlign=middle;spacingLeft=4;spacingRight=4;overflow=hidden;points=[[0,0.5],[1,0.5]];portConstraint=eastwest;rotatable=0;whiteSpace=wrap;html=1;" vertex="1" parent="dvqhOSXXSm0Y7ai2Eb6L-10">
          <mxGeometry y="200" width="100" height="30" as="geometry" />
        </mxCell>
        <mxCell id="dvqhOSXXSm0Y7ai2Eb6L-26" value="Integración y pruebas finales" style="text;strokeColor=none;fillColor=none;align=left;verticalAlign=middle;spacingLeft=4;spacingRight=4;overflow=hidden;points=[[0,0.5],[1,0.5]];portConstraint=eastwest;rotatable=0;whiteSpace=wrap;html=1;" vertex="1" parent="dvqhOSXXSm0Y7ai2Eb6L-10">
          <mxGeometry y="230" width="100" height="30" as="geometry" />
        </mxCell>
        <mxCell id="dvqhOSXXSm0Y7ai2Eb6L-35" value="" style="edgeStyle=orthogonalEdgeStyle;rounded=0;orthogonalLoop=1;jettySize=auto;html=1;endArrow=none;endFill=0;" edge="1" parent="1" source="dvqhOSXXSm0Y7ai2Eb6L-27" target="dvqhOSXXSm0Y7ai2Eb6L-28">
          <mxGeometry relative="1" as="geometry" />
        </mxCell>
        <mxCell id="dvqhOSXXSm0Y7ai2Eb6L-27" value="Inicio" style="ellipse;whiteSpace=wrap;html=1;fillColor=#e1d5e7;strokeColor=#9673a6;" vertex="1" parent="1">
          <mxGeometry x="10" y="455" width="120" height="80" as="geometry" />
        </mxCell>
        <mxCell id="dvqhOSXXSm0Y7ai2Eb6L-37" style="edgeStyle=none;rounded=0;orthogonalLoop=1;jettySize=auto;html=1;endArrow=none;endFill=0;" edge="1" parent="1" source="dvqhOSXXSm0Y7ai2Eb6L-28" target="dvqhOSXXSm0Y7ai2Eb6L-29">
          <mxGeometry relative="1" as="geometry" />
        </mxCell>
        <mxCell id="dvqhOSXXSm0Y7ai2Eb6L-38" style="edgeStyle=none;rounded=0;orthogonalLoop=1;jettySize=auto;html=1;endArrow=none;endFill=0;" edge="1" parent="1" source="dvqhOSXXSm0Y7ai2Eb6L-28" target="dvqhOSXXSm0Y7ai2Eb6L-30">
          <mxGeometry relative="1" as="geometry" />
        </mxCell>
        <mxCell id="dvqhOSXXSm0Y7ai2Eb6L-28" value="Definición de requisitos" style="ellipse;whiteSpace=wrap;html=1;fillColor=#e1d5e7;strokeColor=#9673a6;" vertex="1" parent="1">
          <mxGeometry x="170" y="455" width="120" height="80" as="geometry" />
        </mxCell>
        <mxCell id="dvqhOSXXSm0Y7ai2Eb6L-40" style="edgeStyle=none;rounded=0;orthogonalLoop=1;jettySize=auto;html=1;endArrow=none;endFill=0;" edge="1" parent="1" source="dvqhOSXXSm0Y7ai2Eb6L-29" target="dvqhOSXXSm0Y7ai2Eb6L-31">
          <mxGeometry relative="1" as="geometry" />
        </mxCell>
        <mxCell id="dvqhOSXXSm0Y7ai2Eb6L-29" value="Diseño de UI" style="ellipse;whiteSpace=wrap;html=1;" vertex="1" parent="1">
          <mxGeometry x="354" y="390" width="120" height="80" as="geometry" />
        </mxCell>
        <mxCell id="dvqhOSXXSm0Y7ai2Eb6L-39" style="edgeStyle=none;rounded=0;orthogonalLoop=1;jettySize=auto;html=1;endArrow=none;endFill=0;" edge="1" parent="1" source="dvqhOSXXSm0Y7ai2Eb6L-30" target="dvqhOSXXSm0Y7ai2Eb6L-31">
          <mxGeometry relative="1" as="geometry" />
        </mxCell>
        <mxCell id="dvqhOSXXSm0Y7ai2Eb6L-30" value="Desarrollo del backend" style="ellipse;whiteSpace=wrap;html=1;fillColor=#e1d5e7;strokeColor=#9673a6;" vertex="1" parent="1">
          <mxGeometry x="350" y="505" width="120" height="80" as="geometry" />
        </mxCell>
        <mxCell id="dvqhOSXXSm0Y7ai2Eb6L-41" value="" style="edgeStyle=none;rounded=0;orthogonalLoop=1;jettySize=auto;html=1;endArrow=none;endFill=0;" edge="1" parent="1" source="dvqhOSXXSm0Y7ai2Eb6L-31" target="dvqhOSXXSm0Y7ai2Eb6L-32">
          <mxGeometry relative="1" as="geometry" />
        </mxCell>
        <mxCell id="dvqhOSXXSm0Y7ai2Eb6L-31" value="Desarrollo de funcionalidades de la aplicación" style="ellipse;whiteSpace=wrap;html=1;fillColor=#e1d5e7;strokeColor=#9673a6;" vertex="1" parent="1">
          <mxGeometry x="520" y="455" width="120" height="80" as="geometry" />
        </mxCell>
        <mxCell id="dvqhOSXXSm0Y7ai2Eb6L-42" value="" style="edgeStyle=none;rounded=0;orthogonalLoop=1;jettySize=auto;html=1;endArrow=none;endFill=0;" edge="1" parent="1" source="dvqhOSXXSm0Y7ai2Eb6L-32" target="dvqhOSXXSm0Y7ai2Eb6L-33">
          <mxGeometry relative="1" as="geometry" />
        </mxCell>
        <mxCell id="dvqhOSXXSm0Y7ai2Eb6L-32" value="Pruebas unitarias" style="ellipse;whiteSpace=wrap;html=1;fillColor=#e1d5e7;strokeColor=#9673a6;" vertex="1" parent="1">
          <mxGeometry x="660" y="455" width="120" height="80" as="geometry" />
        </mxCell>
        <mxCell id="dvqhOSXXSm0Y7ai2Eb6L-43" value="" style="edgeStyle=none;rounded=0;orthogonalLoop=1;jettySize=auto;html=1;endArrow=none;endFill=0;" edge="1" parent="1" source="dvqhOSXXSm0Y7ai2Eb6L-33" target="dvqhOSXXSm0Y7ai2Eb6L-34">
          <mxGeometry relative="1" as="geometry" />
        </mxCell>
        <mxCell id="dvqhOSXXSm0Y7ai2Eb6L-33" value="Integración y pruebas finales" style="ellipse;whiteSpace=wrap;html=1;fillColor=#e1d5e7;strokeColor=#9673a6;" vertex="1" parent="1">
          <mxGeometry x="800" y="455" width="120" height="80" as="geometry" />
        </mxCell>
        <mxCell id="dvqhOSXXSm0Y7ai2Eb6L-44" value="" style="edgeStyle=none;rounded=0;orthogonalLoop=1;jettySize=auto;html=1;endArrow=none;endFill=0;" edge="1" parent="1" source="dvqhOSXXSm0Y7ai2Eb6L-34" target="dvqhOSXXSm0Y7ai2Eb6L-36">
          <mxGeometry relative="1" as="geometry" />
        </mxCell>
        <mxCell id="dvqhOSXXSm0Y7ai2Eb6L-34" value="Aprobación del cliente" style="ellipse;whiteSpace=wrap;html=1;fillColor=#e1d5e7;strokeColor=#9673a6;" vertex="1" parent="1">
          <mxGeometry x="940" y="455" width="120" height="80" as="geometry" />
        </mxCell>
        <mxCell id="dvqhOSXXSm0Y7ai2Eb6L-36" value="Fin" style="ellipse;whiteSpace=wrap;html=1;fillColor=#e1d5e7;strokeColor=#9673a6;" vertex="1" parent="1">
          <mxGeometry x="1080" y="455" width="120" height="80" as="geometry" />
        </mxCell>
        <mxCell id="dvqhOSXXSm0Y7ai2Eb6L-45" value="" style="endArrow=none;html=1;rounded=0;" edge="1" parent="1">
          <mxGeometry width="50" height="50" relative="1" as="geometry">
            <mxPoint x="100" y="440" as="sourcePoint" />
            <mxPoint x="100" y="380" as="targetPoint" />
          </mxGeometry>
        </mxCell>
        <mxCell id="dvqhOSXXSm0Y7ai2Eb6L-47" value="" style="endArrow=none;html=1;rounded=0;shadow=0;" edge="1" parent="1">
          <mxGeometry width="50" height="50" relative="1" as="geometry">
            <mxPoint x="70" y="410" as="sourcePoint" />
            <mxPoint x="130" y="410" as="targetPoint" />
          </mxGeometry>
        </mxCell>
        <mxCell id="dvqhOSXXSm0Y7ai2Eb6L-48" value="0" style="text;html=1;strokeColor=none;fillColor=none;align=center;verticalAlign=middle;whiteSpace=wrap;rounded=0;" vertex="1" parent="1">
          <mxGeometry x="70" y="380" width="30" height="30" as="geometry" />
        </mxCell>
        <mxCell id="dvqhOSXXSm0Y7ai2Eb6L-49" value="0" style="text;html=1;strokeColor=none;fillColor=none;align=center;verticalAlign=middle;whiteSpace=wrap;rounded=0;" vertex="1" parent="1">
          <mxGeometry x="100" y="380" width="30" height="30" as="geometry" />
        </mxCell>
        <mxCell id="dvqhOSXXSm0Y7ai2Eb6L-50" value="0" style="text;html=1;strokeColor=none;fillColor=none;align=center;verticalAlign=middle;whiteSpace=wrap;rounded=0;" vertex="1" parent="1">
          <mxGeometry x="70" y="410" width="30" height="30" as="geometry" />
        </mxCell>
        <mxCell id="dvqhOSXXSm0Y7ai2Eb6L-51" value="0" style="text;html=1;strokeColor=none;fillColor=none;align=center;verticalAlign=middle;whiteSpace=wrap;rounded=0;" vertex="1" parent="1">
          <mxGeometry x="100" y="410" width="30" height="30" as="geometry" />
        </mxCell>
        <mxCell id="dvqhOSXXSm0Y7ai2Eb6L-52" value="" style="endArrow=none;html=1;rounded=0;" edge="1" parent="1">
          <mxGeometry width="50" height="50" relative="1" as="geometry">
            <mxPoint x="259.99999999999994" y="455" as="sourcePoint" />
            <mxPoint x="259.99999999999994" y="395" as="targetPoint" />
          </mxGeometry>
        </mxCell>
        <mxCell id="dvqhOSXXSm0Y7ai2Eb6L-53" value="" style="endArrow=none;html=1;rounded=0;shadow=0;" edge="1" parent="1">
          <mxGeometry width="50" height="50" relative="1" as="geometry">
            <mxPoint x="229.99999999999994" y="425" as="sourcePoint" />
            <mxPoint x="289.99999999999994" y="425" as="targetPoint" />
          </mxGeometry>
        </mxCell>
        <mxCell id="dvqhOSXXSm0Y7ai2Eb6L-54" value="0" style="text;html=1;strokeColor=none;fillColor=none;align=center;verticalAlign=middle;whiteSpace=wrap;rounded=0;" vertex="1" parent="1">
          <mxGeometry x="229.99999999999994" y="395" width="30" height="30" as="geometry" />
        </mxCell>
        <mxCell id="dvqhOSXXSm0Y7ai2Eb6L-55" value="3" style="text;html=1;strokeColor=none;fillColor=none;align=center;verticalAlign=middle;whiteSpace=wrap;rounded=0;" vertex="1" parent="1">
          <mxGeometry x="259.99999999999994" y="395" width="30" height="30" as="geometry" />
        </mxCell>
        <mxCell id="dvqhOSXXSm0Y7ai2Eb6L-56" value="0" style="text;html=1;strokeColor=none;fillColor=none;align=center;verticalAlign=middle;whiteSpace=wrap;rounded=0;" vertex="1" parent="1">
          <mxGeometry x="229.99999999999994" y="425" width="30" height="30" as="geometry" />
        </mxCell>
        <mxCell id="dvqhOSXXSm0Y7ai2Eb6L-57" value="3" style="text;html=1;strokeColor=none;fillColor=none;align=center;verticalAlign=middle;whiteSpace=wrap;rounded=0;" vertex="1" parent="1">
          <mxGeometry x="259.99999999999994" y="425" width="30" height="30" as="geometry" />
        </mxCell>
        <mxCell id="dvqhOSXXSm0Y7ai2Eb6L-58" value="" style="endArrow=none;html=1;rounded=0;" edge="1" parent="1">
          <mxGeometry width="50" height="50" relative="1" as="geometry">
            <mxPoint x="412.99999999999994" y="390" as="sourcePoint" />
            <mxPoint x="412.99999999999994" y="330" as="targetPoint" />
          </mxGeometry>
        </mxCell>
        <mxCell id="dvqhOSXXSm0Y7ai2Eb6L-59" value="" style="endArrow=none;html=1;rounded=0;shadow=0;" edge="1" parent="1">
          <mxGeometry width="50" height="50" relative="1" as="geometry">
            <mxPoint x="382.99999999999994" y="360" as="sourcePoint" />
            <mxPoint x="442.99999999999994" y="360" as="targetPoint" />
          </mxGeometry>
        </mxCell>
        <mxCell id="dvqhOSXXSm0Y7ai2Eb6L-60" value="3" style="text;html=1;strokeColor=none;fillColor=none;align=center;verticalAlign=middle;whiteSpace=wrap;rounded=0;" vertex="1" parent="1">
          <mxGeometry x="382.99999999999994" y="330" width="30" height="30" as="geometry" />
        </mxCell>
        <mxCell id="dvqhOSXXSm0Y7ai2Eb6L-61" value="8" style="text;html=1;strokeColor=none;fillColor=none;align=center;verticalAlign=middle;whiteSpace=wrap;rounded=0;" vertex="1" parent="1">
          <mxGeometry x="412.99999999999994" y="330" width="30" height="30" as="geometry" />
        </mxCell>
        <mxCell id="dvqhOSXXSm0Y7ai2Eb6L-62" value="5" style="text;html=1;strokeColor=none;fillColor=none;align=center;verticalAlign=middle;whiteSpace=wrap;rounded=0;" vertex="1" parent="1">
          <mxGeometry x="382.99999999999994" y="360" width="30" height="30" as="geometry" />
        </mxCell>
        <mxCell id="dvqhOSXXSm0Y7ai2Eb6L-63" value="10" style="text;html=1;strokeColor=none;fillColor=none;align=center;verticalAlign=middle;whiteSpace=wrap;rounded=0;" vertex="1" parent="1">
          <mxGeometry x="412.99999999999994" y="360" width="30" height="30" as="geometry" />
        </mxCell>
        <mxCell id="dvqhOSXXSm0Y7ai2Eb6L-64" value="" style="endArrow=none;html=1;rounded=0;" edge="1" parent="1">
          <mxGeometry width="50" height="50" relative="1" as="geometry">
            <mxPoint x="409.99999999999994" y="645" as="sourcePoint" />
            <mxPoint x="409.99999999999994" y="585" as="targetPoint" />
          </mxGeometry>
        </mxCell>
        <mxCell id="dvqhOSXXSm0Y7ai2Eb6L-65" value="" style="endArrow=none;html=1;rounded=0;shadow=0;" edge="1" parent="1">
          <mxGeometry width="50" height="50" relative="1" as="geometry">
            <mxPoint x="379.99999999999994" y="615" as="sourcePoint" />
            <mxPoint x="439.99999999999994" y="615" as="targetPoint" />
          </mxGeometry>
        </mxCell>
        <mxCell id="dvqhOSXXSm0Y7ai2Eb6L-66" value="3" style="text;html=1;strokeColor=none;fillColor=none;align=center;verticalAlign=middle;whiteSpace=wrap;rounded=0;" vertex="1" parent="1">
          <mxGeometry x="379.99999999999994" y="585" width="30" height="30" as="geometry" />
        </mxCell>
        <mxCell id="dvqhOSXXSm0Y7ai2Eb6L-67" value="10" style="text;html=1;strokeColor=none;fillColor=none;align=center;verticalAlign=middle;whiteSpace=wrap;rounded=0;" vertex="1" parent="1">
          <mxGeometry x="409.99999999999994" y="585" width="30" height="30" as="geometry" />
        </mxCell>
        <mxCell id="dvqhOSXXSm0Y7ai2Eb6L-68" value="3" style="text;html=1;strokeColor=none;fillColor=none;align=center;verticalAlign=middle;whiteSpace=wrap;rounded=0;" vertex="1" parent="1">
          <mxGeometry x="379.99999999999994" y="615" width="30" height="30" as="geometry" />
        </mxCell>
        <mxCell id="dvqhOSXXSm0Y7ai2Eb6L-69" value="10" style="text;html=1;strokeColor=none;fillColor=none;align=center;verticalAlign=middle;whiteSpace=wrap;rounded=0;" vertex="1" parent="1">
          <mxGeometry x="409.99999999999994" y="615" width="30" height="30" as="geometry" />
        </mxCell>
        <mxCell id="dvqhOSXXSm0Y7ai2Eb6L-70" value="" style="endArrow=none;html=1;rounded=0;" edge="1" parent="1">
          <mxGeometry width="50" height="50" relative="1" as="geometry">
            <mxPoint x="580" y="455" as="sourcePoint" />
            <mxPoint x="580" y="395" as="targetPoint" />
          </mxGeometry>
        </mxCell>
        <mxCell id="dvqhOSXXSm0Y7ai2Eb6L-71" value="" style="endArrow=none;html=1;rounded=0;shadow=0;" edge="1" parent="1">
          <mxGeometry width="50" height="50" relative="1" as="geometry">
            <mxPoint x="550" y="425" as="sourcePoint" />
            <mxPoint x="610" y="425" as="targetPoint" />
          </mxGeometry>
        </mxCell>
        <mxCell id="dvqhOSXXSm0Y7ai2Eb6L-72" value="10" style="text;html=1;strokeColor=none;fillColor=none;align=center;verticalAlign=middle;whiteSpace=wrap;rounded=0;" vertex="1" parent="1">
          <mxGeometry x="550" y="395" width="30" height="30" as="geometry" />
        </mxCell>
        <mxCell id="dvqhOSXXSm0Y7ai2Eb6L-73" value="20" style="text;html=1;strokeColor=none;fillColor=none;align=center;verticalAlign=middle;whiteSpace=wrap;rounded=0;" vertex="1" parent="1">
          <mxGeometry x="580" y="395" width="30" height="30" as="geometry" />
        </mxCell>
        <mxCell id="dvqhOSXXSm0Y7ai2Eb6L-74" value="10" style="text;html=1;strokeColor=none;fillColor=none;align=center;verticalAlign=middle;whiteSpace=wrap;rounded=0;" vertex="1" parent="1">
          <mxGeometry x="550" y="425" width="30" height="30" as="geometry" />
        </mxCell>
        <mxCell id="dvqhOSXXSm0Y7ai2Eb6L-75" value="20" style="text;html=1;strokeColor=none;fillColor=none;align=center;verticalAlign=middle;whiteSpace=wrap;rounded=0;" vertex="1" parent="1">
          <mxGeometry x="580" y="425" width="30" height="30" as="geometry" />
        </mxCell>
        <mxCell id="dvqhOSXXSm0Y7ai2Eb6L-76" value="" style="endArrow=none;html=1;rounded=0;" edge="1" parent="1">
          <mxGeometry width="50" height="50" relative="1" as="geometry">
            <mxPoint x="720" y="455" as="sourcePoint" />
            <mxPoint x="720" y="395" as="targetPoint" />
          </mxGeometry>
        </mxCell>
        <mxCell id="dvqhOSXXSm0Y7ai2Eb6L-77" value="" style="endArrow=none;html=1;rounded=0;shadow=0;" edge="1" parent="1">
          <mxGeometry width="50" height="50" relative="1" as="geometry">
            <mxPoint x="690" y="425" as="sourcePoint" />
            <mxPoint x="750" y="425" as="targetPoint" />
          </mxGeometry>
        </mxCell>
        <mxCell id="dvqhOSXXSm0Y7ai2Eb6L-78" value="20" style="text;html=1;strokeColor=none;fillColor=none;align=center;verticalAlign=middle;whiteSpace=wrap;rounded=0;" vertex="1" parent="1">
          <mxGeometry x="690" y="395" width="30" height="30" as="geometry" />
        </mxCell>
        <mxCell id="dvqhOSXXSm0Y7ai2Eb6L-79" value="24" style="text;html=1;strokeColor=none;fillColor=none;align=center;verticalAlign=middle;whiteSpace=wrap;rounded=0;" vertex="1" parent="1">
          <mxGeometry x="720" y="395" width="30" height="30" as="geometry" />
        </mxCell>
        <mxCell id="dvqhOSXXSm0Y7ai2Eb6L-80" value="20" style="text;html=1;strokeColor=none;fillColor=none;align=center;verticalAlign=middle;whiteSpace=wrap;rounded=0;" vertex="1" parent="1">
          <mxGeometry x="690" y="425" width="30" height="30" as="geometry" />
        </mxCell>
        <mxCell id="dvqhOSXXSm0Y7ai2Eb6L-81" value="24" style="text;html=1;strokeColor=none;fillColor=none;align=center;verticalAlign=middle;whiteSpace=wrap;rounded=0;" vertex="1" parent="1">
          <mxGeometry x="720" y="425" width="30" height="30" as="geometry" />
        </mxCell>
        <mxCell id="dvqhOSXXSm0Y7ai2Eb6L-82" value="" style="endArrow=none;html=1;rounded=0;" edge="1" parent="1">
          <mxGeometry width="50" height="50" relative="1" as="geometry">
            <mxPoint x="860" y="455" as="sourcePoint" />
            <mxPoint x="860" y="395" as="targetPoint" />
          </mxGeometry>
        </mxCell>
        <mxCell id="dvqhOSXXSm0Y7ai2Eb6L-83" value="" style="endArrow=none;html=1;rounded=0;shadow=0;" edge="1" parent="1">
          <mxGeometry width="50" height="50" relative="1" as="geometry">
            <mxPoint x="830" y="425" as="sourcePoint" />
            <mxPoint x="890" y="425" as="targetPoint" />
          </mxGeometry>
        </mxCell>
        <mxCell id="dvqhOSXXSm0Y7ai2Eb6L-84" value="24" style="text;html=1;strokeColor=none;fillColor=none;align=center;verticalAlign=middle;whiteSpace=wrap;rounded=0;" vertex="1" parent="1">
          <mxGeometry x="830" y="395" width="30" height="30" as="geometry" />
        </mxCell>
        <mxCell id="dvqhOSXXSm0Y7ai2Eb6L-85" value="30" style="text;html=1;strokeColor=none;fillColor=none;align=center;verticalAlign=middle;whiteSpace=wrap;rounded=0;" vertex="1" parent="1">
          <mxGeometry x="860" y="395" width="30" height="30" as="geometry" />
        </mxCell>
        <mxCell id="dvqhOSXXSm0Y7ai2Eb6L-86" value="24" style="text;html=1;strokeColor=none;fillColor=none;align=center;verticalAlign=middle;whiteSpace=wrap;rounded=0;" vertex="1" parent="1">
          <mxGeometry x="830" y="425" width="30" height="30" as="geometry" />
        </mxCell>
        <mxCell id="dvqhOSXXSm0Y7ai2Eb6L-87" value="30" style="text;html=1;strokeColor=none;fillColor=none;align=center;verticalAlign=middle;whiteSpace=wrap;rounded=0;" vertex="1" parent="1">
          <mxGeometry x="860" y="425" width="30" height="30" as="geometry" />
        </mxCell>
        <mxCell id="dvqhOSXXSm0Y7ai2Eb6L-88" value="" style="endArrow=none;html=1;rounded=0;" edge="1" parent="1">
          <mxGeometry width="50" height="50" relative="1" as="geometry">
            <mxPoint x="1000" y="455" as="sourcePoint" />
            <mxPoint x="1000" y="395" as="targetPoint" />
          </mxGeometry>
        </mxCell>
        <mxCell id="dvqhOSXXSm0Y7ai2Eb6L-89" value="" style="endArrow=none;html=1;rounded=0;shadow=0;" edge="1" parent="1">
          <mxGeometry width="50" height="50" relative="1" as="geometry">
            <mxPoint x="970" y="425" as="sourcePoint" />
            <mxPoint x="1030" y="425" as="targetPoint" />
          </mxGeometry>
        </mxCell>
        <mxCell id="dvqhOSXXSm0Y7ai2Eb6L-90" value="30" style="text;html=1;strokeColor=none;fillColor=none;align=center;verticalAlign=middle;whiteSpace=wrap;rounded=0;" vertex="1" parent="1">
          <mxGeometry x="970" y="395" width="30" height="30" as="geometry" />
        </mxCell>
        <mxCell id="dvqhOSXXSm0Y7ai2Eb6L-91" value="32" style="text;html=1;strokeColor=none;fillColor=none;align=center;verticalAlign=middle;whiteSpace=wrap;rounded=0;" vertex="1" parent="1">
          <mxGeometry x="1000" y="395" width="30" height="30" as="geometry" />
        </mxCell>
        <mxCell id="dvqhOSXXSm0Y7ai2Eb6L-92" value="30" style="text;html=1;strokeColor=none;fillColor=none;align=center;verticalAlign=middle;whiteSpace=wrap;rounded=0;" vertex="1" parent="1">
          <mxGeometry x="970" y="425" width="30" height="30" as="geometry" />
        </mxCell>
        <mxCell id="dvqhOSXXSm0Y7ai2Eb6L-93" value="32" style="text;html=1;strokeColor=none;fillColor=none;align=center;verticalAlign=middle;whiteSpace=wrap;rounded=0;" vertex="1" parent="1">
          <mxGeometry x="1000" y="425" width="30" height="30" as="geometry" />
        </mxCell>
        <mxCell id="dvqhOSXXSm0Y7ai2Eb6L-94" value="" style="endArrow=none;html=1;rounded=0;" edge="1" parent="1">
          <mxGeometry width="50" height="50" relative="1" as="geometry">
            <mxPoint x="1140" y="455" as="sourcePoint" />
            <mxPoint x="1140" y="395" as="targetPoint" />
          </mxGeometry>
        </mxCell>
        <mxCell id="dvqhOSXXSm0Y7ai2Eb6L-95" value="" style="endArrow=none;html=1;rounded=0;shadow=0;" edge="1" parent="1">
          <mxGeometry width="50" height="50" relative="1" as="geometry">
            <mxPoint x="1110" y="425" as="sourcePoint" />
            <mxPoint x="1170" y="425" as="targetPoint" />
          </mxGeometry>
        </mxCell>
        <mxCell id="dvqhOSXXSm0Y7ai2Eb6L-96" value="32" style="text;html=1;strokeColor=none;fillColor=none;align=center;verticalAlign=middle;whiteSpace=wrap;rounded=0;" vertex="1" parent="1">
          <mxGeometry x="1110" y="395" width="30" height="30" as="geometry" />
        </mxCell>
        <mxCell id="dvqhOSXXSm0Y7ai2Eb6L-97" value="32" style="text;html=1;strokeColor=none;fillColor=none;align=center;verticalAlign=middle;whiteSpace=wrap;rounded=0;" vertex="1" parent="1">
          <mxGeometry x="1140" y="395" width="30" height="30" as="geometry" />
        </mxCell>
        <mxCell id="dvqhOSXXSm0Y7ai2Eb6L-98" value="32" style="text;html=1;strokeColor=none;fillColor=none;align=center;verticalAlign=middle;whiteSpace=wrap;rounded=0;" vertex="1" parent="1">
          <mxGeometry x="1110" y="425" width="30" height="30" as="geometry" />
        </mxCell>
        <mxCell id="dvqhOSXXSm0Y7ai2Eb6L-99" value="32" style="text;html=1;strokeColor=none;fillColor=none;align=center;verticalAlign=middle;whiteSpace=wrap;rounded=0;" vertex="1" parent="1">
          <mxGeometry x="1140" y="425" width="30" height="30" as="geometry" />
        </mxCell>
        <mxCell id="dvqhOSXXSm0Y7ai2Eb6L-100" value="h = 0" style="text;html=1;strokeColor=none;fillColor=none;align=center;verticalAlign=middle;whiteSpace=wrap;rounded=0;" vertex="1" parent="1">
          <mxGeometry x="70" y="350" width="60" height="30" as="geometry" />
        </mxCell>
        <mxCell id="dvqhOSXXSm0Y7ai2Eb6L-101" value="h = 0" style="text;html=1;strokeColor=none;fillColor=none;align=center;verticalAlign=middle;whiteSpace=wrap;rounded=0;" vertex="1" parent="1">
          <mxGeometry x="230" y="365" width="60" height="30" as="geometry" />
        </mxCell>
        <mxCell id="dvqhOSXXSm0Y7ai2Eb6L-102" value="h = 2" style="text;html=1;strokeColor=none;fillColor=none;align=center;verticalAlign=middle;whiteSpace=wrap;rounded=0;" vertex="1" parent="1">
          <mxGeometry x="383" y="300" width="60" height="30" as="geometry" />
        </mxCell>
        <mxCell id="dvqhOSXXSm0Y7ai2Eb6L-103" value="h = 0" style="text;html=1;strokeColor=none;fillColor=none;align=center;verticalAlign=middle;whiteSpace=wrap;rounded=0;" vertex="1" parent="1">
          <mxGeometry x="380" y="645" width="60" height="30" as="geometry" />
        </mxCell>
        <mxCell id="dvqhOSXXSm0Y7ai2Eb6L-104" value="h = 0" style="text;html=1;strokeColor=none;fillColor=none;align=center;verticalAlign=middle;whiteSpace=wrap;rounded=0;" vertex="1" parent="1">
          <mxGeometry x="550" y="365" width="60" height="30" as="geometry" />
        </mxCell>
        <mxCell id="dvqhOSXXSm0Y7ai2Eb6L-105" value="h = 0" style="text;html=1;strokeColor=none;fillColor=none;align=center;verticalAlign=middle;whiteSpace=wrap;rounded=0;" vertex="1" parent="1">
          <mxGeometry x="690" y="365" width="60" height="30" as="geometry" />
        </mxCell>
        <mxCell id="dvqhOSXXSm0Y7ai2Eb6L-106" value="h = 0" style="text;html=1;strokeColor=none;fillColor=none;align=center;verticalAlign=middle;whiteSpace=wrap;rounded=0;" vertex="1" parent="1">
          <mxGeometry x="830" y="365" width="60" height="30" as="geometry" />
        </mxCell>
        <mxCell id="dvqhOSXXSm0Y7ai2Eb6L-107" value="h = 0" style="text;html=1;strokeColor=none;fillColor=none;align=center;verticalAlign=middle;whiteSpace=wrap;rounded=0;" vertex="1" parent="1">
          <mxGeometry x="970" y="365" width="60" height="30" as="geometry" />
        </mxCell>
        <mxCell id="dvqhOSXXSm0Y7ai2Eb6L-108" value="h = 0" style="text;html=1;strokeColor=none;fillColor=none;align=center;verticalAlign=middle;whiteSpace=wrap;rounded=0;" vertex="1" parent="1">
          <mxGeometry x="1110" y="365" width="60" height="30" as="geometry" />
        </mxCell>
      </root>
    </mxGraphModel>
  </diagram>
</mxfile>
